<svg xmlns="http://www.w3.org/2000/svg" version="1.1" xmlns:xlink="http://www.w3.org/1999/xlink" xmlns:svgjs="http://svgjs.dev/svgjs" width="2000" height="1247" viewBox="0 0 2000 1247"><g transform="matrix(1,0,0,1,-1.2121212121212466,0.504858299595071)"><svg viewBox="0 0 396 247" data-background-color="#ffffff" preserveAspectRatio="xMidYMid meet" height="1247" width="2000" xmlns="http://www.w3.org/2000/svg" xmlns:xlink="http://www.w3.org/1999/xlink"><g id="tight-bounds" transform="matrix(1,0,0,1,0.2400000000000091,-0.09999999999999432)"><svg viewBox="0 0 395.52 247.2" height="247.2" width="395.52"><g><svg></svg></g><g><svg viewBox="0 0 395.52 247.2" height="247.2" width="395.52"><g transform="matrix(1,0,0,1,0,86.75044665149636)"><svg viewBox="0 0 395.52 73.69910669700728" height="73.69910669700728" width="395.52"><g><svg viewBox="0 0 395.52 73.69910669700728" height="73.69910669700728" width="395.52"><g><svg viewBox="0 0 395.52 73.69910669700728" height="73.69910669700728" width="395.52"><g><svg viewBox="0 0 395.52 73.69910669700728" height="73.69910669700728" width="395.52"><g id="textblocktransform"><svg viewBox="0 0 395.52 73.69910669700728" height="73.69910669700728" width="395.52" id="textblock"><g><svg viewBox="0 0 395.52 43.188352655702346" height="43.188352655702346" width="395.52"><g transform="matrix(1,0,0,1,0,0)"><svg width="395.52" viewBox="-2.5 -37 371.88 41.5" height="43.188352655702346" data-palette-color="#ffdc00"><path d="M19.9 0L1.5 0 1.5-0.8 5.95-2.9 5.95-30.1 1.5-32.2 1.5-33 19.9-33 19.9-32.2 15.45-30.1 15.45-2.9 19.9-0.8 19.9 0ZM26.65 0L15.45-16.5 29.1-30.3 25.25-32.2 25.25-33 37.85-33 37.85-32.2 34.4-30.65 23.85-20.65 36.5-2.35 40.3-0.8 40.3 0 26.65 0ZM54.3 0L42 0 42-0.85 45.8-2.5 45.8-25.55 42-27.2 42-28 52.4-28 68.85-10.8 68.85-25.55 63.6-27.2 63.6-28 75.8-28 75.8-27.2 72.1-25.55 72.1 0.2 67.55 0.2 49.05-18.95 49.05-2.5 54.3-0.85 54.3 0ZM94.65 0.5L94.65 0.5Q90.1 0.5 86.57-1.4 83.05-3.3 81.05-6.6 79.05-9.9 79.05-14.05L79.05-14.05Q79.05-18.2 81.05-21.5 83.05-24.8 86.57-26.7 90.1-28.6 94.65-28.6L94.65-28.6Q99.2-28.6 102.72-26.7 106.25-24.8 108.25-21.5 110.25-18.2 110.25-14.05L110.25-14.05Q110.25-9.9 108.25-6.6 106.25-3.3 102.72-1.4 99.2 0.5 94.65 0.5ZM95.25-2.15L95.25-2.15Q96.9-2.15 98.1-3.55 99.3-4.95 99.95-7.35 100.6-9.75 100.6-12.8L100.6-12.8Q100.6-16.6 99.77-19.58 98.95-22.55 97.5-24.28 96.05-26 94.2-26L94.2-26Q92.6-26 91.35-24.6 90.1-23.2 89.42-20.8 88.75-18.4 88.75-15.35L88.75-15.35Q88.75-11.6 89.6-8.6 90.45-5.6 91.92-3.88 93.4-2.15 95.25-2.15ZM128.89 0.25L124.19 0.25 115.89-25.2 112.49-27.2 112.49-28 128.89-28 128.89-27.2 125.34-25.6 129.89-10.85 130.14-10.85 137.34-28 142.04-28 149.24-10.85 149.49-10.85 154.09-25.65 150.49-27.2 150.49-28 160.29-28 160.29-27.2 157.39-25.65 148.84 0.25 144.14 0.25 136.54-17.6 136.19-17.6 128.89 0.25ZM191.79 0L162.29 0 162.29-0.8 166.74-2.9 166.74-30.1 162.29-32.2 162.29-33 181.19-33 181.19-32.2 176.24-30.1 176.24-2.75 186.49-2.75 190.99-12.95 191.79-12.95 191.79 0ZM211.14 0.5L211.14 0.5Q206.59 0.5 203.06-1.4 199.54-3.3 197.54-6.6 195.54-9.9 195.54-14.05L195.54-14.05Q195.54-18.2 197.54-21.5 199.54-24.8 203.06-26.7 206.59-28.6 211.14-28.6L211.14-28.6Q215.69-28.6 219.21-26.7 222.74-24.8 224.74-21.5 226.74-18.2 226.74-14.05L226.74-14.05Q226.74-9.9 224.74-6.6 222.74-3.3 219.21-1.4 215.69 0.5 211.14 0.5ZM211.74-2.15L211.74-2.15Q213.39-2.15 214.59-3.55 215.79-4.95 216.44-7.35 217.09-9.75 217.09-12.8L217.09-12.8Q217.09-16.6 216.26-19.58 215.44-22.55 213.99-24.28 212.54-26 210.69-26L210.69-26Q209.09-26 207.84-24.6 206.59-23.2 205.91-20.8 205.24-18.4 205.24-15.35L205.24-15.35Q205.24-11.6 206.09-8.6 206.94-5.6 208.41-3.88 209.89-2.15 211.74-2.15ZM247.79 0.5L247.79 0.5Q243.79 0.5 240.61-0.7 237.44-1.9 235.64-4.78 233.84-7.65 233.84-12.6L233.84-12.6 233.84-25.5 229.99-27.2 229.99-28 246.94-28 246.94-27.2 243.09-25.5 243.09-12.25Q243.09-8.8 244.09-6.8 245.09-4.8 246.84-3.98 248.59-3.15 250.74-3.15L250.74-3.15Q252.69-3.15 254.31-3.9 255.94-4.65 256.91-6.33 257.88-8 257.88-10.75L257.88-10.75 257.88-25.6 254.04-27.2 254.04-28 265.04-28 265.04-27.2 261.19-25.55 261.19-11.75Q261.19-5.5 257.84-2.5 254.49 0.5 247.79 0.5ZM280.33 0L268.03 0 268.03-0.85 271.83-2.5 271.83-25.55 268.03-27.2 268.03-28 278.43-28 294.88-10.8 294.88-25.55 289.63-27.2 289.63-28 301.83-28 301.83-27.2 298.13-25.55 298.13 0.2 293.58 0.2 275.08-18.95 275.08-2.5 280.33-0.85 280.33 0ZM320.73 0.5L320.73 0.5Q316.53 0.5 312.98-1.23 309.43-2.95 307.31-6.13 305.18-9.3 305.18-13.6L305.18-13.6Q305.18-17.05 306.56-19.8 307.93-22.55 310.36-24.53 312.78-26.5 315.93-27.53 319.08-28.55 322.63-28.55L322.63-28.55Q325.93-28.55 328.16-27.95 330.38-27.35 332.23-26.5L332.23-26.5 332.83-18.75 331.93-18.75 327.73-24.9Q326.68-25.5 325.73-25.73 324.78-25.95 323.43-25.95L323.43-25.95Q319.08-25.95 316.93-22.5 314.78-19.05 314.78-13.45L314.78-13.45Q314.78-10.2 315.58-7.65 316.38-5.1 318.11-3.63 319.83-2.15 322.63-2.15L322.63-2.15Q322.93-2.15 323.28-2.2L323.28-2.2 323.28-10.1 319.48-12.2 319.48-12.95 335.88-12.95 335.88-12.2 332.53-10.1 332.53-3.05Q331.43-2 329.53-1.2 327.63-0.4 325.36 0.05 323.08 0.5 320.73 0.5ZM365.38 0L338.23 0 338.23-0.8 342.03-2.45 342.03-25.55 338.23-27.2 338.23-28 364.18-28 364.18-20.2 363.38-20.2 359.58-25.4 351.28-25.4 351.28-15.6 357.03-15.6 359.88-19.35 360.63-19.35 360.63-9.65 359.88-9.65 357.03-13.35 351.28-13.35 351.28-2.6 360.48-2.6 364.58-9.7 365.38-9.7 365.38 0Z" opacity="1" transform="matrix(1,0,0,1,0,0)" fill="#ffdc00" class="undefined-text-0" data-fill-palette-color="primary" id="text-0"></path></svg></g></svg></g><g transform="matrix(1,0,0,1,3.5,51.62186064685899)"><svg viewBox="0 0 388.52 22.07724605014829" height="22.07724605014829" width="388.52"><g transform="matrix(1,0,0,1,0,0)"><svg width="388.52" viewBox="-2.45 -40 923.34 53.4" height="22.07724605014829" data-palette-color="#ffdc00"><path d="M18.45-34.8Q22.6-34.8 25.88-33.18 29.15-31.55 31.05-28.28 32.95-25 32.95-20.25L32.95-20.25 23.1-20.25 23.1-22Q23.1-24.3 21.68-25.65 20.25-27 18.1-27L18.1-27 17.85-27Q15.75-27 14.3-25.55 12.85-24.1 12.85-22L12.85-22 12.85-12.35Q12.85-10.25 14.3-8.8 15.75-7.35 17.85-7.35L17.85-7.35 18.55-7.35Q20.7-7.35 22.13-8.68 23.55-10 23.55-12.35L23.55-12.35 23.55-14 32.95-14Q32.95-9.6 31.13-6.3 29.3-3 26.1-1.25 22.9 0.5 18.85 0.5L18.85 0.5 17.45 0.5Q13 0.5 9.38-1.3 5.75-3.1 3.65-6.5 1.55-9.9 1.55-14.5L1.55-14.5 1.55-19.8Q1.55-24.15 3.68-27.58 5.8-31 9.35-32.9 12.9-34.8 17.05-34.8L17.05-34.8 18.45-34.8ZM51.7-26.05Q55.45-26.05 58.47-24.43 61.5-22.8 63.22-19.9 64.95-17 64.95-13.3L64.95-13.3 64.95-12.25Q64.95-8.5 63.22-5.6 61.5-2.7 58.47-1.1 55.45 0.5 51.7 0.5L51.7 0.5 50.1 0.5Q46.35 0.5 43.32-1.13 40.3-2.75 38.57-5.65 36.85-8.55 36.85-12.25L36.85-12.25 36.85-13.3Q36.85-17 38.57-19.9 40.3-22.8 43.32-24.43 46.35-26.05 50.1-26.05L50.1-26.05 51.7-26.05ZM50.9-20Q49.45-20 48.45-18.98 47.45-17.95 47.45-16.5L47.45-16.5 47.45-9.05Q47.45-7.6 48.45-6.58 49.45-5.55 50.9-5.55L50.9-5.55Q52.35-5.55 53.35-6.58 54.35-7.6 54.35-9.05L54.35-9.05 54.35-16.5Q54.35-17.95 53.35-18.98 52.35-20 50.9-20L50.9-20ZM87.75-26.05Q89.8-26.05 91.52-25.05 93.25-24.05 94.25-22.33 95.25-20.6 95.25-18.55L95.25-18.55 95.25 0 85.35 0 85.35-16Q85.35-17.25 84.57-18.13 83.8-19 82.7-19L82.7-19Q81.6-19 80.82-18.13 80.05-17.25 80.05-16L80.05-16 80.05 0 70.15 0 70.15-25.55 77.6-25.55 78.6-21.85Q81.35-26.05 86.35-26.05L86.35-26.05 87.75-26.05ZM119.09-26.05Q121.14-26.05 122.87-25.05 124.59-24.05 125.59-22.33 126.59-20.6 126.59-18.55L126.59-18.55 126.59 0 116.69 0 116.69-16Q116.69-17.25 115.92-18.13 115.14-19 114.04-19L114.04-19Q112.94-19 112.17-18.13 111.39-17.25 111.39-16L111.39-16 111.39 0 101.49 0 101.49-25.55 108.94-25.55 109.94-21.85Q112.69-26.05 117.69-26.05L117.69-26.05 119.09-26.05ZM146.59-26.05Q150.44-26.05 153.22-24.58 155.99-23.1 157.47-20.5 158.94-17.9 158.94-14.55L158.94-14.55 158.94-11.45 142.29-11.45 142.29-9.05Q142.29-7.35 143.37-6.45 144.44-5.55 146.14-5.55L146.14-5.55Q147.89-5.55 148.82-6.63 149.74-7.7 149.74-9.6L149.74-9.6 158.89-9.6Q158.89-6.75 157.42-4.45 155.94-2.15 153.12-0.83 150.29 0.5 146.44 0.5L146.44 0.5 145.69 0.5Q141.69 0.5 138.52-0.98 135.34-2.45 133.52-5.28 131.69-8.1 131.69-12L131.69-12 131.69-13.55Q131.69-17.45 133.42-20.28 135.14-23.1 138.24-24.58 141.34-26.05 145.34-26.05L145.34-26.05 146.59-26.05ZM145.74-20Q144.29-20 143.29-18.98 142.29-17.95 142.29-16.5L142.29-16.5 142.29-15.8 149.19-15.8 149.19-16.5Q149.19-17.95 148.19-18.98 147.19-20 145.74-20L145.74-20ZM177.09-26.05Q180.79-26.05 183.49-24.65 186.19-23.25 187.62-20.78 189.04-18.3 189.04-15.2L189.04-15.2 180.59-15.2 180.59-16.5Q180.59-17.95 179.59-18.98 178.59-20 177.14-20L177.14-20Q175.69-20 174.69-18.98 173.69-17.95 173.69-16.5L173.69-16.5 173.69-9.05Q173.69-7.6 174.72-6.58 175.74-5.55 177.19-5.55L177.19-5.55 177.79-5.55Q179.24-5.55 180.19-6.55 181.14-7.55 181.14-9.05L181.14-9.05 181.14-10.35 189.04-10.35Q189.04-5.2 185.84-2.35 182.64 0.5 177.14 0.5L177.14 0.5 175.69 0.5Q172.34 0.5 169.44-1.15 166.54-2.8 164.82-5.63 163.09-8.45 163.09-11.75L163.09-11.75 163.09-13.8Q163.09-17.1 164.79-19.93 166.49-22.75 169.37-24.4 172.24-26.05 175.59-26.05L175.59-26.05 177.09-26.05ZM205.49-33.7L205.49-25.55 211.49-25.55 211.49-18.45 205.49-18.45 205.49-9Q205.49-7 206.26-6.28 207.04-5.55 208.34-5.55L208.34-5.55Q208.94-5.55 209.91-5.73 210.89-5.9 211.44-6.15L211.44-6.15 211.44-0.55Q210.29-0.05 208.24 0.25 206.19 0.55 204.74 0.55L204.74 0.55Q200.34 0.55 197.96-1.05 195.59-2.65 195.59-6.5L195.59-6.5 195.59-18.45 192.79-18.45 192.79-25.55 195.99-25.55 199.44-33.7 205.49-33.7ZM240.59-26.05Q246.39-26.05 249.46-23.8 252.54-21.55 252.54-17.95L252.54-17.95 252.54-7.4Q252.54-6.45 252.99-6 253.44-5.55 254.09-5.55L254.09-5.55Q255.04-5.55 255.84-6L255.84-6 255.84-0.65Q254.24 0.5 250.79 0.5L250.79 0.5Q247.59 0.5 245.74-0.58 243.89-1.65 243.44-3.55L243.44-3.55Q241.84-1.7 239.91-0.6 237.99 0.5 235.19 0.5L235.19 0.5Q231.19 0.5 228.69-1.05 226.19-2.6 226.19-7.15L226.19-7.15Q226.19-10.6 228.14-12.48 230.09-14.35 233.71-15.08 237.34-15.8 242.94-15.8L242.94-15.8 242.94-17.25Q242.94-18.65 242.01-19.45 241.09-20.25 239.69-20.25L239.69-20.25Q238.54-20.25 237.51-19.58 236.49-18.9 236.49-17.9L236.49-17.9 236.49-17.7 226.99-17.7Q226.94-17.85 226.94-18.4L226.94-18.4Q226.94-20.55 228.41-22.28 229.89-24 232.61-25.03 235.34-26.05 238.94-26.05L238.94-26.05 240.59-26.05ZM242.94-11.25Q239.64-11.25 238.09-10.38 236.54-9.5 236.54-7.95L236.54-7.95Q236.54-5.55 239.54-5.55L239.54-5.55Q240.94-5.55 241.94-6.53 242.94-7.5 242.94-9.05L242.94-9.05 242.94-11.25ZM277.68-26.05Q279.73-26.05 281.46-25.05 283.18-24.05 284.18-22.33 285.18-20.6 285.18-18.55L285.18-18.55 285.18 0 275.28 0 275.28-16Q275.28-17.25 274.51-18.13 273.73-19 272.63-19L272.63-19Q271.53-19 270.76-18.13 269.98-17.25 269.98-16L269.98-16 269.98 0 260.08 0 260.08-25.55 267.53-25.55 268.53-21.85Q271.28-26.05 276.28-26.05L276.28-26.05 277.68-26.05ZM316.48 0L308.58 0 307.68-2.95Q304.93 0.5 301.23 0.5L301.23 0.5Q298.13 0.5 295.66-0.95 293.18-2.4 291.76-5.33 290.33-8.25 290.33-12.5L290.33-12.5 290.33-13.05Q290.33-17.3 291.61-20.23 292.88-23.15 295.06-24.6 297.23-26.05 299.98-26.05L299.98-26.05Q304.68-26.05 306.58-22.9L306.58-22.9 306.58-36 316.48-36 316.48 0ZM303.48-19.8Q302.18-19.8 301.28-18.78 300.38-17.75 300.38-16.3L300.38-16.3 300.38-9.05Q300.38-7.6 301.28-6.58 302.18-5.55 303.48-5.55L303.48-5.55Q304.78-5.55 305.68-6.58 306.58-7.6 306.58-9.05L306.58-9.05 306.58-16.3Q306.58-17.75 305.68-18.78 304.78-19.8 303.48-19.8L303.48-19.8ZM349.83-34.8Q353.98-34.8 357.25-33.18 360.53-31.55 362.43-28.28 364.33-25 364.33-20.25L364.33-20.25 354.48-20.25 354.48-22Q354.48-24.3 353.05-25.65 351.63-27 349.48-27L349.48-27 349.23-27Q347.13-27 345.68-25.55 344.23-24.1 344.23-22L344.23-22 344.23-12.35Q344.23-10.25 345.68-8.8 347.13-7.35 349.23-7.35L349.23-7.35 349.93-7.35Q352.08-7.35 353.5-8.68 354.93-10 354.93-12.35L354.93-12.35 354.93-14 364.33-14Q364.33-9.6 362.5-6.3 360.68-3 357.48-1.25 354.28 0.5 350.23 0.5L350.23 0.5 348.83 0.5Q344.38 0.5 340.75-1.3 337.13-3.1 335.03-6.5 332.93-9.9 332.93-14.5L332.93-14.5 332.93-19.8Q332.93-24.15 335.05-27.58 337.18-31 340.73-32.9 344.28-34.8 348.43-34.8L348.43-34.8 349.83-34.8ZM379.33-22.55Q381.73-26.05 385.63-26.05L385.63-26.05 387.03-26.05Q389.08-26.05 390.8-25.05 392.53-24.05 393.53-22.33 394.53-20.6 394.53-18.55L394.53-18.55 394.53 0 384.63 0 384.63-16Q384.63-17.25 383.85-18.13 383.08-19 381.98-19L381.98-19Q380.88-19 380.1-18.13 379.33-17.25 379.33-16L379.33-16 379.33 0 369.43 0 369.43-36 379.33-36 379.33-22.55ZM413.87-26.05Q419.67-26.05 422.75-23.8 425.82-21.55 425.82-17.95L425.82-17.95 425.82-7.4Q425.82-6.45 426.27-6 426.72-5.55 427.37-5.55L427.37-5.55Q428.32-5.55 429.12-6L429.12-6 429.12-0.65Q427.52 0.5 424.07 0.5L424.07 0.5Q420.87 0.5 419.02-0.58 417.17-1.65 416.72-3.55L416.72-3.55Q415.12-1.7 413.2-0.6 411.27 0.5 408.47 0.5L408.47 0.5Q404.47 0.5 401.97-1.05 399.47-2.6 399.47-7.15L399.47-7.15Q399.47-10.6 401.42-12.48 403.37-14.35 407-15.08 410.62-15.8 416.22-15.8L416.22-15.8 416.22-17.25Q416.22-18.65 415.3-19.45 414.37-20.25 412.97-20.25L412.97-20.25Q411.82-20.25 410.8-19.58 409.77-18.9 409.77-17.9L409.77-17.9 409.77-17.7 400.27-17.7Q400.22-17.85 400.22-18.4L400.22-18.4Q400.22-20.55 401.7-22.28 403.17-24 405.9-25.03 408.62-26.05 412.22-26.05L412.22-26.05 413.87-26.05ZM416.22-11.25Q412.92-11.25 411.37-10.38 409.82-9.5 409.82-7.95L409.82-7.95Q409.82-5.55 412.82-5.55L412.82-5.55Q414.22-5.55 415.22-6.53 416.22-7.5 416.22-9.05L416.22-9.05 416.22-11.25ZM444.72-33.7L444.72-25.55 450.72-25.55 450.72-18.45 444.72-18.45 444.72-9Q444.72-7 445.5-6.28 446.27-5.55 447.57-5.55L447.57-5.55Q448.17-5.55 449.15-5.73 450.12-5.9 450.67-6.15L450.67-6.15 450.67-0.55Q449.52-0.05 447.47 0.25 445.42 0.55 443.97 0.55L443.97 0.55Q439.57 0.55 437.2-1.05 434.82-2.65 434.82-6.5L434.82-6.5 434.82-18.45 432.02-18.45 432.02-25.55 435.22-25.55 438.67-33.7 444.72-33.7ZM497.22-25.55L506.82-25.55 499.52 0 488.32 0 485.87-10.65 485.47-10.65 483.07 0 471.67 0 464.42-25.55 474.72-25.55 477.57-12.65 477.92-12.65 480.97-25.55 490.97-25.55 493.97-12.65 494.37-12.65 497.22-25.55ZM520.72-36L520.72-28.85 510.87-28.85 510.87-36 520.72-36ZM520.72-25.5L520.72 0 510.87 0 510.87-25.5 520.72-25.5ZM538.46-33.7L538.46-25.55 544.46-25.55 544.46-18.45 538.46-18.45 538.46-9Q538.46-7 539.24-6.28 540.01-5.55 541.31-5.55L541.31-5.55Q541.91-5.55 542.89-5.73 543.86-5.9 544.41-6.15L544.41-6.15 544.41-0.55Q543.26-0.05 541.21 0.25 539.16 0.55 537.71 0.55L537.71 0.55Q533.31 0.55 530.94-1.05 528.56-2.65 528.56-6.5L528.56-6.5 528.56-18.45 525.76-18.45 525.76-25.55 528.96-25.55 532.41-33.7 538.46-33.7ZM559.36-22.55Q561.76-26.05 565.66-26.05L565.66-26.05 567.06-26.05Q569.11-26.05 570.84-25.05 572.56-24.05 573.56-22.33 574.56-20.6 574.56-18.55L574.56-18.55 574.56 0 564.66 0 564.66-16Q564.66-17.25 563.89-18.13 563.11-19 562.01-19L562.01-19Q560.91-19 560.14-18.13 559.36-17.25 559.36-16L559.36-16 559.36 0 549.46 0 549.46-36 559.36-36 559.36-22.55ZM623.76-34.3L613.31-20.55 624.06 0 612.31 0 606.36-12.4 602.36-7.6 602.36 0 592.16 0 592.16-34.3 602.36-34.3 602.36-20.75 612.16-34.3 623.76-34.3ZM645.06-26.05Q647.11-26.05 648.83-25.05 650.56-24.05 651.56-22.33 652.56-20.6 652.56-18.55L652.56-18.55 652.56 0 642.66 0 642.66-16Q642.66-17.25 641.88-18.13 641.11-19 640.01-19L640.01-19Q638.91-19 638.13-18.13 637.36-17.25 637.36-16L637.36-16 637.36 0 627.46 0 627.46-25.55 634.91-25.55 635.91-21.85Q638.66-26.05 643.66-26.05L643.66-26.05 645.06-26.05ZM672.46-26.05Q676.21-26.05 679.23-24.43 682.26-22.8 683.98-19.9 685.71-17 685.71-13.3L685.71-13.3 685.71-12.25Q685.71-8.5 683.98-5.6 682.26-2.7 679.23-1.1 676.21 0.5 672.46 0.5L672.46 0.5 670.86 0.5Q667.11 0.5 664.08-1.13 661.06-2.75 659.33-5.65 657.61-8.55 657.61-12.25L657.61-12.25 657.61-13.3Q657.61-17 659.33-19.9 661.06-22.8 664.08-24.43 667.11-26.05 670.86-26.05L670.86-26.05 672.46-26.05ZM671.66-20Q670.21-20 669.21-18.98 668.21-17.95 668.21-16.5L668.21-16.5 668.21-9.05Q668.21-7.6 669.21-6.58 670.21-5.55 671.66-5.55L671.66-5.55Q673.11-5.55 674.11-6.58 675.11-7.6 675.11-9.05L675.11-9.05 675.11-16.5Q675.11-17.95 674.11-18.98 673.11-20 671.66-20L671.66-20ZM721.4-25.55L731-25.55 723.7 0 712.5 0 710.05-10.65 709.65-10.65 707.25 0 695.85 0 688.6-25.55 698.9-25.55 701.75-12.65 702.1-12.65 705.15-25.55 715.15-25.55 718.15-12.65 718.55-12.65 721.4-25.55ZM746-34.3L746-8.4 758.45-8.4 759.45 0 735.4 0 735.4-34.3 746-34.3ZM777.3-26.05Q781.05-26.05 784.07-24.43 787.1-22.8 788.82-19.9 790.55-17 790.55-13.3L790.55-13.3 790.55-12.25Q790.55-8.5 788.82-5.6 787.1-2.7 784.07-1.1 781.05 0.5 777.3 0.5L777.3 0.5 775.7 0.5Q771.95 0.5 768.92-1.13 765.9-2.75 764.17-5.65 762.45-8.55 762.45-12.25L762.45-12.25 762.45-13.3Q762.45-17 764.17-19.9 765.9-22.8 768.92-24.43 771.95-26.05 775.7-26.05L775.7-26.05 777.3-26.05ZM776.5-20Q775.05-20 774.05-18.98 773.05-17.95 773.05-16.5L773.05-16.5 773.05-9.05Q773.05-7.6 774.05-6.58 775.05-5.55 776.5-5.55L776.5-5.55Q777.95-5.55 778.95-6.58 779.95-7.6 779.95-9.05L779.95-9.05 779.95-16.5Q779.95-17.95 778.95-18.98 777.95-20 776.5-20L776.5-20ZM820.65-25.55L820.65-7.4Q820.65-6.45 821.1-6 821.55-5.55 822.2-5.55L822.2-5.55Q823.15-5.55 823.95-6L823.95-6 823.95-0.65Q822.35 0.5 818.9 0.5L818.9 0.5Q815.7 0.5 814-0.53 812.3-1.55 811.55-3.55L811.55-3.55Q810.7-2.25 808.75-0.88 806.8 0.5 804.45 0.5L804.45 0.5 803.05 0.5Q801 0.5 799.27-0.5 797.55-1.5 796.55-3.23 795.55-4.95 795.55-7L795.55-7 795.55-25.55 805.45-25.55 805.45-9.55Q805.45-8.3 806.22-7.43 807-6.55 808.1-6.55L808.1-6.55Q809.2-6.55 809.97-7.43 810.75-8.3 810.75-9.55L810.75-9.55 810.75-25.55 820.65-25.55ZM846.15-26.05Q848.2-26.05 849.92-25.05 851.65-24.05 852.65-22.33 853.65-20.6 853.65-18.55L853.65-18.55 853.65 0 843.75 0 843.75-16Q843.75-17.25 842.97-18.13 842.2-19 841.1-19L841.1-19Q840-19 839.22-18.13 838.45-17.25 838.45-16L838.45-16 838.45 0 828.55 0 828.55-25.55 836-25.55 837-21.85Q839.75-26.05 844.75-26.05L844.75-26.05 846.15-26.05ZM886.84-30.15Q886.84-27.25 885.47-25.7 884.09-24.15 881.34-23.4L881.34-23.4Q882.69-22.35 883.42-20.95 884.14-19.55 884.14-18.05L884.14-18.05Q884.14-15.85 882.79-14 881.44-12.15 879.14-11.08 876.84-10 874.14-10L874.14-10 870.69-10Q869.24-10 868.54-9.58 867.84-9.15 867.84-8.5L867.84-8.5Q867.84-7.75 868.44-7.35 869.04-6.95 870.69-6.95L870.69-6.95 878.84-6.95Q882.84-6.95 884.84-4.83 886.84-2.7 886.84 0.85L886.84 0.85Q886.84 3.1 885.47 5.08 884.09 7.05 881.79 8.22 879.49 9.4 876.84 9.4L876.84 9.4 863.59 9.4Q861.14 9.4 859.37 7.65 857.59 5.9 857.59 3.4L857.59 3.4 857.59 3.15Q857.59 1.4 858.69-0.08 859.79-1.55 861.39-2.3L861.39-2.3Q860.29-3.05 859.64-4.2 858.99-5.35 858.99-6.65L858.99-6.65Q858.99-8.5 860.32-10 861.64-11.5 863.59-12L863.59-12Q861.84-13.15 860.79-14.7 859.74-16.25 859.74-18L859.74-18Q859.74-21.55 862.69-23.8 865.64-26.05 871.24-26.05L871.24-26.05 872.64-26.05Q874.44-26.05 875.94-25.75L875.94-25.75Q877.84-27 878.64-28.18 879.44-29.35 879.44-30.15L879.44-30.15 886.84-30.15ZM872.14-21.15Q870.84-21.15 869.97-20.23 869.09-19.3 869.09-18L869.09-18Q869.09-16.7 869.97-15.78 870.84-14.85 872.14-14.85L872.14-14.85Q873.44-14.85 874.32-15.78 875.19-16.7 875.19-18L875.19-18Q875.19-19.3 874.32-20.23 873.44-21.15 872.14-21.15L872.14-21.15ZM868.29 0Q867.24 0 866.52 0.6 865.79 1.2 865.79 2.05L865.79 2.05Q865.79 2.9 866.52 3.53 867.24 4.15 868.29 4.15L868.29 4.15 875.44 4.15Q876.49 4.15 877.22 3.55 877.94 2.95 877.94 2.1L877.94 2.1Q877.94 1.25 877.22 0.63 876.49 0 875.44 0L875.44 0 868.29 0ZM904.54-26.05Q908.39-26.05 911.17-24.58 913.94-23.1 915.42-20.5 916.89-17.9 916.89-14.55L916.89-14.55 916.89-11.45 900.24-11.45 900.24-9.05Q900.24-7.35 901.32-6.45 902.39-5.55 904.09-5.55L904.09-5.55Q905.84-5.55 906.77-6.63 907.69-7.7 907.69-9.6L907.69-9.6 916.84-9.6Q916.84-6.75 915.37-4.45 913.89-2.15 911.07-0.83 908.24 0.5 904.39 0.5L904.39 0.5 903.64 0.5Q899.64 0.5 896.47-0.98 893.29-2.45 891.47-5.28 889.64-8.1 889.64-12L889.64-12 889.64-13.55Q889.64-17.45 891.37-20.28 893.09-23.1 896.19-24.58 899.29-26.05 903.29-26.05L903.29-26.05 904.54-26.05ZM903.69-20Q902.24-20 901.24-18.98 900.24-17.95 900.24-16.5L900.24-16.5 900.24-15.8 907.14-15.8 907.14-16.5Q907.14-17.95 906.14-18.98 905.14-20 903.69-20L903.69-20Z" opacity="1" transform="matrix(1,0,0,1,0,0)" fill="#ffdc00" class="undefined-text-1" data-fill-palette-color="secondary" id="text-1"></path></svg></g></svg></g></svg></g></svg></g></svg></g></svg></g></svg></g><g mask="url(&quot;#ce2bb0ac-ca3a-4800-bd22-8de116e67522&quot;)"><g transform="matrix(3.8027295285359797, 0, 0, 3.8027295285359797, 49.84522952853598, 1)"><svg xmlns="http://www.w3.org/2000/svg" xmlns:xlink="http://www.w3.org/1999/xlink" version="1.1" x="0" y="0" viewBox="11.205999999999989 17.759999999999994 77.79400000000001 64.48" enable-background="new 0 0 100 100" xml:space="preserve" height="64.48" width="77.79400000000001" class="icon-none" data-fill-palette-color="accent" id="none"><g fill="#0074d9" data-fill-palette-color="accent"><path d="M88.844 52.861c-0.732-14.075-12.447-25.1-26.572-25.1-1.202 0-2.44 0.088-3.627 0.249-4.852-6.231-12.437-10.25-20.927-10.25-14.125 0-25.772 11.025-26.504 25.1l-0.008 29.38 8.617-8.434c4.861 4.438 11.267 6.949 17.876 6.949 1.213 0 2.405-0.089 3.575-0.248 5.008 6.437 12.732 10.249 20.921 10.249 6.609 0 13.171-2.511 18.031-6.949L89 82.24V52.965L88.844 52.861zM21.286 59.635l-1.498-1.491L15 62.729V43.017C16 31.093 25.62 21.76 37.598 21.76c12.405 0 22.547 10.092 22.547 22.498 0 12.405-10.067 22.497-22.471 22.497C31.393 66.754 25.589 64.226 21.286 59.635zM61.583 56h12.895c-0.742 6-5.968 10.736-12.282 10.736-2.619 0-5.101-0.747-7.184-2.241C57.746 62.13 59.997 59 61.583 56zM85 72.73l-4.84-4.585-1.474 1.49c-4.304 4.592-10.171 7.12-16.452 7.12-6.303 0-12.302-2.662-16.534-7.232 2.465-0.78 4.766-1.911 6.862-3.335 2.723 2.206 6.295 3.411 9.854 3.411C70.893 69.599 78 62.703 78 54.227V53H62.8c0.444-1 0.789-2.809 1.024-4.206 0.701 1.069 1.906 1.709 3.28 1.709 2.167 0 3.924-1.791 3.924-3.958s-1.757-3.941-3.924-3.941c-1.164 0-2.198 0.508-2.916 1.312-0.057-4.375-1.176-8.502-3.116-12.124 0.374-0.018 0.903-0.03 1.278-0.03C74.327 31.763 84 41.094 85 53.018V72.73z" fill="#0074d9" data-fill-palette-color="accent"></path><path d="M51.572 41.641c-0.829 0-1.5 0.671-1.5 1.5 0 6.823-5.55 12.373-12.373 12.373-6.823 0-12.373-5.55-12.373-12.373 0-0.829-0.671-1.5-1.5-1.5s-1.5 0.671-1.5 1.5c0 8.477 6.896 15.373 15.373 15.373s15.373-6.896 15.373-15.373C53.072 42.312 52.4 41.641 51.572 41.641z" fill="#0074d9" data-fill-palette-color="accent"></path><circle cx="31.409" cy="35.425" r="3.9" fill="#0074d9" data-fill-palette-color="accent"></circle><path d="M38.772 39h7.971c0.829 0 1.5-0.671 1.5-1.5s-0.671-1.5-1.5-1.5h-2.504l0.851-0.573c0.712-0.423 0.947-1.377 0.524-2.09-0.423-0.712-1.343-0.965-2.056-0.541l-5.553 3.286c-0.581 0.345-0.86 1.099-0.681 1.751C37.504 38.485 38.096 39 38.772 39z" fill="#0074d9" data-fill-palette-color="accent"></path></g></svg></g></g><mask id="ce2bb0ac-ca3a-4800-bd22-8de116e67522"><rect width="640" height="400" fill="white"></rect><g transform="matrix(1,0,0,1,0,86.75044665149636)"><svg viewBox="0 0 395.52 73.69910669700728" height="73.69910669700728" width="395.52"><g><svg viewBox="0 0 395.52 73.69910669700728" height="73.69910669700728" width="395.52"><g><svg viewBox="0 0 395.52 73.69910669700728" height="73.69910669700728" width="395.52"><g><svg viewBox="0 0 395.52 73.69910669700728" height="73.69910669700728" width="395.52"><g id="SvgjsG2432"><svg viewBox="0 0 395.52 73.69910669700728" height="73.69910669700728" width="395.52" id="SvgjsSvg2431"><g><svg viewBox="0 0 395.52 43.188352655702346" height="43.188352655702346" width="395.52"><g transform="matrix(1,0,0,1,0,0)"><svg width="395.52" viewBox="-2.5 -37 371.88 41.5" height="43.188352655702346" data-palette-color="#ffdc00"><path d="M19.9 0L1.5 0 1.5-0.8 5.95-2.9 5.95-30.1 1.5-32.2 1.5-33 19.9-33 19.9-32.2 15.45-30.1 15.45-2.9 19.9-0.8 19.9 0ZM26.65 0L15.45-16.5 29.1-30.3 25.25-32.2 25.25-33 37.85-33 37.85-32.2 34.4-30.65 23.85-20.65 36.5-2.35 40.3-0.8 40.3 0 26.65 0ZM54.3 0L42 0 42-0.85 45.8-2.5 45.8-25.55 42-27.2 42-28 52.4-28 68.85-10.8 68.85-25.55 63.6-27.2 63.6-28 75.8-28 75.8-27.2 72.1-25.55 72.1 0.2 67.55 0.2 49.05-18.95 49.05-2.5 54.3-0.85 54.3 0ZM94.65 0.5L94.65 0.5Q90.1 0.5 86.57-1.4 83.05-3.3 81.05-6.6 79.05-9.9 79.05-14.05L79.05-14.05Q79.05-18.2 81.05-21.5 83.05-24.8 86.57-26.7 90.1-28.6 94.65-28.6L94.65-28.6Q99.2-28.6 102.72-26.7 106.25-24.8 108.25-21.5 110.25-18.2 110.25-14.05L110.25-14.05Q110.25-9.9 108.25-6.6 106.25-3.3 102.72-1.4 99.2 0.5 94.65 0.5ZM95.25-2.15L95.25-2.15Q96.9-2.15 98.1-3.55 99.3-4.95 99.95-7.35 100.6-9.75 100.6-12.8L100.6-12.8Q100.6-16.6 99.77-19.58 98.95-22.55 97.5-24.28 96.05-26 94.2-26L94.2-26Q92.6-26 91.35-24.6 90.1-23.2 89.42-20.8 88.75-18.4 88.75-15.35L88.75-15.35Q88.75-11.6 89.6-8.6 90.45-5.6 91.92-3.88 93.4-2.15 95.25-2.15ZM128.89 0.25L124.19 0.25 115.89-25.2 112.49-27.2 112.49-28 128.89-28 128.89-27.2 125.34-25.6 129.89-10.85 130.14-10.85 137.34-28 142.04-28 149.24-10.85 149.49-10.85 154.09-25.65 150.49-27.2 150.49-28 160.29-28 160.29-27.2 157.39-25.65 148.84 0.25 144.14 0.25 136.54-17.6 136.19-17.6 128.89 0.25ZM191.79 0L162.29 0 162.29-0.8 166.74-2.9 166.74-30.1 162.29-32.2 162.29-33 181.19-33 181.19-32.2 176.24-30.1 176.24-2.75 186.49-2.75 190.99-12.95 191.79-12.95 191.79 0ZM211.14 0.5L211.14 0.5Q206.59 0.5 203.06-1.4 199.54-3.3 197.54-6.6 195.54-9.9 195.54-14.05L195.54-14.05Q195.54-18.2 197.54-21.5 199.54-24.8 203.06-26.7 206.59-28.6 211.14-28.6L211.14-28.6Q215.69-28.6 219.21-26.7 222.74-24.8 224.74-21.5 226.74-18.2 226.74-14.05L226.74-14.05Q226.74-9.9 224.74-6.6 222.74-3.3 219.21-1.4 215.69 0.5 211.14 0.5ZM211.74-2.15L211.74-2.15Q213.39-2.15 214.59-3.55 215.79-4.95 216.44-7.35 217.09-9.75 217.09-12.8L217.09-12.8Q217.09-16.6 216.26-19.58 215.44-22.55 213.99-24.28 212.54-26 210.69-26L210.69-26Q209.09-26 207.84-24.6 206.59-23.2 205.91-20.8 205.24-18.4 205.24-15.35L205.24-15.35Q205.24-11.6 206.09-8.6 206.94-5.6 208.41-3.88 209.89-2.15 211.74-2.15ZM247.79 0.5L247.79 0.5Q243.79 0.5 240.61-0.7 237.44-1.9 235.64-4.78 233.84-7.65 233.84-12.6L233.84-12.6 233.84-25.5 229.99-27.2 229.99-28 246.94-28 246.94-27.2 243.09-25.5 243.09-12.25Q243.09-8.8 244.09-6.8 245.09-4.8 246.84-3.98 248.59-3.15 250.74-3.15L250.74-3.15Q252.69-3.15 254.31-3.9 255.94-4.65 256.91-6.33 257.88-8 257.88-10.75L257.88-10.75 257.88-25.6 254.04-27.2 254.04-28 265.04-28 265.04-27.2 261.19-25.55 261.19-11.75Q261.19-5.5 257.84-2.5 254.49 0.5 247.79 0.5ZM280.33 0L268.03 0 268.03-0.85 271.83-2.5 271.83-25.55 268.03-27.2 268.03-28 278.43-28 294.88-10.8 294.88-25.55 289.63-27.2 289.63-28 301.83-28 301.83-27.2 298.13-25.55 298.13 0.2 293.58 0.2 275.08-18.95 275.08-2.5 280.33-0.85 280.33 0ZM320.73 0.5L320.73 0.5Q316.53 0.5 312.98-1.23 309.43-2.95 307.31-6.13 305.18-9.3 305.18-13.6L305.18-13.6Q305.18-17.05 306.56-19.8 307.93-22.55 310.36-24.53 312.78-26.5 315.93-27.53 319.08-28.55 322.63-28.55L322.63-28.55Q325.93-28.55 328.16-27.95 330.38-27.35 332.23-26.5L332.23-26.5 332.83-18.75 331.93-18.75 327.73-24.9Q326.68-25.5 325.73-25.73 324.78-25.95 323.43-25.95L323.43-25.95Q319.08-25.95 316.93-22.5 314.78-19.05 314.78-13.45L314.78-13.45Q314.78-10.2 315.58-7.65 316.38-5.1 318.11-3.63 319.83-2.15 322.63-2.15L322.63-2.15Q322.93-2.15 323.28-2.2L323.28-2.2 323.28-10.1 319.48-12.2 319.48-12.95 335.88-12.95 335.88-12.2 332.53-10.1 332.53-3.05Q331.43-2 329.53-1.2 327.63-0.4 325.36 0.05 323.08 0.5 320.73 0.5ZM365.38 0L338.23 0 338.23-0.8 342.03-2.45 342.03-25.55 338.23-27.2 338.23-28 364.18-28 364.18-20.2 363.38-20.2 359.58-25.4 351.28-25.4 351.28-15.6 357.03-15.6 359.88-19.35 360.63-19.35 360.63-9.65 359.88-9.65 357.03-13.35 351.28-13.35 351.28-2.6 360.48-2.6 364.58-9.7 365.38-9.7 365.38 0Z" opacity="1" transform="matrix(1,0,0,1,0,0)" fill="#ffdc00" class="undefined-text-0" data-fill-palette-color="primary" id="SvgjsPath2430" stroke-width="7" stroke="black" stroke-linejoin="round"></path></svg></g></svg></g><g transform="matrix(1,0,0,1,3.5,51.62186064685899)"><svg viewBox="0 0 388.52 22.07724605014829" height="22.07724605014829" width="388.52"><g transform="matrix(1,0,0,1,0,0)"><svg width="388.52" viewBox="-2.45 -40 923.34 53.4" height="22.07724605014829" data-palette-color="#ffdc00"><path d="M18.45-34.8Q22.6-34.8 25.88-33.18 29.15-31.55 31.05-28.28 32.95-25 32.95-20.25L32.95-20.25 23.1-20.25 23.1-22Q23.1-24.3 21.68-25.65 20.25-27 18.1-27L18.1-27 17.85-27Q15.75-27 14.3-25.55 12.85-24.1 12.85-22L12.85-22 12.85-12.35Q12.85-10.25 14.3-8.8 15.75-7.35 17.85-7.35L17.85-7.35 18.55-7.35Q20.7-7.35 22.13-8.68 23.55-10 23.55-12.35L23.55-12.35 23.55-14 32.95-14Q32.95-9.6 31.13-6.3 29.3-3 26.1-1.25 22.9 0.5 18.85 0.5L18.85 0.5 17.45 0.5Q13 0.5 9.38-1.3 5.75-3.1 3.65-6.5 1.55-9.9 1.55-14.5L1.55-14.5 1.55-19.8Q1.55-24.15 3.68-27.58 5.8-31 9.35-32.9 12.9-34.8 17.05-34.8L17.05-34.8 18.45-34.8ZM51.7-26.05Q55.45-26.05 58.47-24.43 61.5-22.8 63.22-19.9 64.95-17 64.95-13.3L64.95-13.3 64.95-12.25Q64.95-8.5 63.22-5.6 61.5-2.7 58.47-1.1 55.45 0.5 51.7 0.5L51.7 0.5 50.1 0.5Q46.35 0.5 43.32-1.13 40.3-2.75 38.57-5.65 36.85-8.55 36.85-12.25L36.85-12.25 36.85-13.3Q36.85-17 38.57-19.9 40.3-22.8 43.32-24.43 46.35-26.05 50.1-26.05L50.1-26.05 51.7-26.05ZM50.9-20Q49.45-20 48.45-18.98 47.45-17.95 47.45-16.5L47.45-16.5 47.45-9.05Q47.45-7.6 48.45-6.58 49.45-5.55 50.9-5.55L50.9-5.55Q52.35-5.55 53.35-6.58 54.35-7.6 54.35-9.05L54.35-9.05 54.35-16.5Q54.35-17.95 53.35-18.98 52.35-20 50.9-20L50.9-20ZM87.75-26.05Q89.8-26.05 91.52-25.05 93.25-24.05 94.25-22.33 95.25-20.6 95.25-18.55L95.25-18.55 95.25 0 85.35 0 85.35-16Q85.35-17.25 84.57-18.13 83.8-19 82.7-19L82.7-19Q81.6-19 80.82-18.13 80.05-17.25 80.05-16L80.05-16 80.05 0 70.15 0 70.15-25.55 77.6-25.55 78.6-21.85Q81.35-26.05 86.35-26.05L86.35-26.05 87.75-26.05ZM119.09-26.05Q121.14-26.05 122.87-25.05 124.59-24.05 125.59-22.33 126.59-20.6 126.59-18.55L126.59-18.55 126.59 0 116.69 0 116.69-16Q116.69-17.25 115.92-18.13 115.14-19 114.04-19L114.04-19Q112.94-19 112.17-18.13 111.39-17.25 111.39-16L111.39-16 111.39 0 101.49 0 101.49-25.55 108.94-25.55 109.94-21.85Q112.69-26.05 117.69-26.05L117.69-26.05 119.09-26.05ZM146.59-26.05Q150.44-26.05 153.22-24.58 155.99-23.1 157.47-20.5 158.94-17.9 158.94-14.55L158.94-14.55 158.94-11.45 142.29-11.45 142.29-9.05Q142.29-7.35 143.37-6.45 144.44-5.55 146.14-5.55L146.14-5.55Q147.89-5.55 148.82-6.63 149.74-7.7 149.74-9.6L149.74-9.6 158.89-9.6Q158.89-6.75 157.42-4.45 155.94-2.15 153.12-0.83 150.29 0.5 146.44 0.5L146.44 0.5 145.69 0.5Q141.69 0.5 138.52-0.98 135.34-2.45 133.52-5.28 131.69-8.1 131.69-12L131.69-12 131.69-13.55Q131.69-17.45 133.42-20.28 135.14-23.1 138.24-24.58 141.34-26.05 145.34-26.05L145.34-26.05 146.59-26.05ZM145.74-20Q144.29-20 143.29-18.98 142.29-17.95 142.29-16.5L142.29-16.5 142.29-15.8 149.19-15.8 149.19-16.5Q149.19-17.95 148.19-18.98 147.19-20 145.74-20L145.74-20ZM177.09-26.05Q180.79-26.05 183.49-24.65 186.19-23.25 187.62-20.78 189.04-18.3 189.04-15.2L189.04-15.2 180.59-15.2 180.59-16.5Q180.59-17.95 179.59-18.98 178.59-20 177.14-20L177.14-20Q175.69-20 174.69-18.98 173.69-17.95 173.69-16.5L173.69-16.5 173.69-9.05Q173.69-7.6 174.72-6.58 175.74-5.55 177.19-5.55L177.19-5.55 177.79-5.55Q179.24-5.55 180.19-6.55 181.14-7.55 181.14-9.05L181.14-9.05 181.14-10.35 189.04-10.35Q189.04-5.2 185.84-2.35 182.64 0.5 177.14 0.5L177.14 0.5 175.69 0.5Q172.34 0.5 169.44-1.15 166.54-2.8 164.82-5.63 163.09-8.45 163.09-11.75L163.09-11.75 163.09-13.8Q163.09-17.1 164.79-19.93 166.49-22.75 169.37-24.4 172.24-26.05 175.59-26.05L175.59-26.05 177.09-26.05ZM205.49-33.7L205.49-25.55 211.49-25.55 211.49-18.45 205.49-18.45 205.49-9Q205.49-7 206.26-6.28 207.04-5.55 208.34-5.55L208.34-5.55Q208.94-5.55 209.91-5.73 210.89-5.9 211.44-6.15L211.44-6.15 211.44-0.55Q210.29-0.05 208.24 0.25 206.19 0.55 204.74 0.55L204.74 0.55Q200.34 0.55 197.96-1.05 195.59-2.65 195.59-6.5L195.59-6.5 195.59-18.45 192.79-18.45 192.79-25.55 195.99-25.55 199.44-33.7 205.49-33.7ZM240.59-26.05Q246.39-26.05 249.46-23.8 252.54-21.55 252.54-17.95L252.54-17.95 252.54-7.4Q252.54-6.45 252.99-6 253.44-5.55 254.09-5.55L254.09-5.55Q255.04-5.55 255.84-6L255.84-6 255.84-0.65Q254.24 0.5 250.79 0.5L250.79 0.5Q247.59 0.5 245.74-0.58 243.89-1.65 243.44-3.55L243.44-3.55Q241.84-1.7 239.91-0.6 237.99 0.5 235.19 0.5L235.19 0.5Q231.19 0.5 228.69-1.05 226.19-2.6 226.19-7.15L226.19-7.15Q226.19-10.6 228.14-12.48 230.09-14.35 233.71-15.08 237.34-15.8 242.94-15.8L242.94-15.8 242.94-17.25Q242.94-18.65 242.01-19.45 241.09-20.25 239.69-20.25L239.69-20.25Q238.54-20.25 237.51-19.58 236.49-18.9 236.49-17.9L236.49-17.9 236.49-17.7 226.99-17.7Q226.94-17.85 226.94-18.4L226.94-18.4Q226.94-20.55 228.41-22.28 229.89-24 232.61-25.03 235.34-26.05 238.94-26.05L238.94-26.05 240.59-26.05ZM242.94-11.25Q239.64-11.25 238.09-10.38 236.54-9.5 236.54-7.95L236.54-7.95Q236.54-5.55 239.54-5.55L239.54-5.55Q240.94-5.55 241.94-6.53 242.94-7.5 242.94-9.05L242.94-9.05 242.94-11.25ZM277.68-26.05Q279.73-26.05 281.46-25.05 283.18-24.05 284.18-22.33 285.18-20.6 285.18-18.55L285.18-18.55 285.18 0 275.28 0 275.28-16Q275.28-17.25 274.51-18.13 273.73-19 272.63-19L272.63-19Q271.53-19 270.76-18.13 269.98-17.25 269.98-16L269.98-16 269.98 0 260.08 0 260.08-25.55 267.53-25.55 268.53-21.85Q271.28-26.05 276.28-26.05L276.28-26.05 277.68-26.05ZM316.48 0L308.58 0 307.68-2.95Q304.93 0.5 301.23 0.5L301.23 0.5Q298.13 0.5 295.66-0.95 293.18-2.4 291.76-5.33 290.33-8.25 290.33-12.5L290.33-12.5 290.33-13.05Q290.33-17.3 291.61-20.23 292.88-23.15 295.06-24.6 297.23-26.05 299.98-26.05L299.98-26.05Q304.68-26.05 306.58-22.9L306.58-22.9 306.58-36 316.48-36 316.48 0ZM303.48-19.8Q302.18-19.8 301.28-18.78 300.38-17.75 300.38-16.3L300.38-16.3 300.38-9.05Q300.38-7.6 301.28-6.58 302.18-5.55 303.48-5.55L303.48-5.55Q304.78-5.55 305.68-6.58 306.58-7.6 306.58-9.05L306.58-9.05 306.58-16.3Q306.58-17.75 305.68-18.78 304.78-19.8 303.48-19.8L303.48-19.8ZM349.83-34.8Q353.98-34.8 357.25-33.18 360.53-31.55 362.43-28.28 364.33-25 364.33-20.25L364.33-20.25 354.48-20.25 354.48-22Q354.48-24.3 353.05-25.65 351.63-27 349.48-27L349.48-27 349.23-27Q347.13-27 345.68-25.55 344.23-24.1 344.23-22L344.23-22 344.23-12.35Q344.23-10.25 345.68-8.8 347.13-7.35 349.23-7.35L349.23-7.35 349.93-7.35Q352.08-7.35 353.5-8.68 354.93-10 354.93-12.35L354.93-12.35 354.93-14 364.33-14Q364.33-9.6 362.5-6.3 360.68-3 357.48-1.25 354.28 0.5 350.23 0.5L350.23 0.5 348.83 0.5Q344.38 0.5 340.75-1.3 337.13-3.1 335.03-6.5 332.93-9.9 332.93-14.5L332.93-14.5 332.93-19.8Q332.93-24.15 335.05-27.58 337.18-31 340.73-32.9 344.28-34.8 348.43-34.8L348.43-34.8 349.83-34.8ZM379.33-22.55Q381.73-26.05 385.63-26.05L385.63-26.05 387.03-26.05Q389.08-26.05 390.8-25.05 392.53-24.05 393.53-22.33 394.53-20.6 394.53-18.55L394.53-18.55 394.53 0 384.63 0 384.63-16Q384.63-17.25 383.85-18.13 383.08-19 381.98-19L381.98-19Q380.88-19 380.1-18.13 379.33-17.25 379.33-16L379.33-16 379.33 0 369.43 0 369.43-36 379.33-36 379.33-22.55ZM413.87-26.05Q419.67-26.05 422.75-23.8 425.82-21.55 425.82-17.95L425.82-17.95 425.82-7.4Q425.82-6.45 426.27-6 426.72-5.55 427.37-5.55L427.37-5.55Q428.32-5.55 429.12-6L429.12-6 429.12-0.65Q427.52 0.5 424.07 0.5L424.07 0.5Q420.87 0.5 419.02-0.58 417.17-1.65 416.72-3.55L416.72-3.55Q415.12-1.7 413.2-0.6 411.27 0.5 408.47 0.5L408.47 0.5Q404.47 0.5 401.97-1.05 399.47-2.6 399.47-7.15L399.47-7.15Q399.47-10.6 401.42-12.48 403.37-14.35 407-15.08 410.62-15.8 416.22-15.8L416.22-15.8 416.22-17.25Q416.22-18.65 415.3-19.45 414.37-20.25 412.97-20.25L412.97-20.25Q411.82-20.25 410.8-19.58 409.77-18.9 409.77-17.9L409.77-17.9 409.77-17.7 400.27-17.7Q400.22-17.85 400.22-18.4L400.22-18.4Q400.22-20.55 401.7-22.28 403.17-24 405.9-25.03 408.62-26.05 412.22-26.05L412.22-26.05 413.87-26.05ZM416.22-11.25Q412.92-11.25 411.37-10.38 409.82-9.5 409.82-7.95L409.82-7.95Q409.82-5.55 412.82-5.55L412.82-5.55Q414.22-5.55 415.22-6.53 416.22-7.5 416.22-9.05L416.22-9.05 416.22-11.25ZM444.72-33.7L444.72-25.55 450.72-25.55 450.72-18.45 444.72-18.45 444.72-9Q444.72-7 445.5-6.28 446.27-5.55 447.57-5.55L447.57-5.55Q448.17-5.55 449.15-5.73 450.12-5.9 450.67-6.15L450.67-6.15 450.67-0.55Q449.52-0.05 447.47 0.25 445.42 0.55 443.97 0.55L443.97 0.55Q439.57 0.55 437.2-1.05 434.82-2.65 434.82-6.5L434.82-6.5 434.82-18.45 432.02-18.45 432.02-25.55 435.22-25.55 438.67-33.7 444.72-33.7ZM497.22-25.55L506.82-25.55 499.52 0 488.32 0 485.87-10.65 485.47-10.65 483.07 0 471.67 0 464.42-25.55 474.72-25.55 477.57-12.65 477.92-12.65 480.97-25.55 490.97-25.55 493.97-12.65 494.37-12.65 497.22-25.55ZM520.72-36L520.72-28.85 510.87-28.85 510.87-36 520.72-36ZM520.72-25.5L520.72 0 510.87 0 510.87-25.5 520.72-25.5ZM538.46-33.7L538.46-25.55 544.46-25.55 544.46-18.45 538.46-18.45 538.46-9Q538.46-7 539.24-6.28 540.01-5.55 541.31-5.55L541.31-5.55Q541.91-5.55 542.89-5.73 543.86-5.9 544.41-6.15L544.41-6.15 544.41-0.55Q543.26-0.05 541.21 0.25 539.16 0.55 537.71 0.55L537.71 0.55Q533.31 0.55 530.94-1.05 528.56-2.65 528.56-6.5L528.56-6.5 528.56-18.45 525.76-18.45 525.76-25.55 528.96-25.55 532.41-33.7 538.46-33.7ZM559.36-22.55Q561.76-26.05 565.66-26.05L565.66-26.05 567.06-26.05Q569.11-26.05 570.84-25.05 572.56-24.05 573.56-22.33 574.56-20.6 574.56-18.55L574.56-18.55 574.56 0 564.66 0 564.66-16Q564.66-17.25 563.89-18.13 563.11-19 562.01-19L562.01-19Q560.91-19 560.14-18.13 559.36-17.25 559.36-16L559.36-16 559.36 0 549.46 0 549.46-36 559.36-36 559.36-22.55ZM623.76-34.3L613.31-20.55 624.06 0 612.31 0 606.36-12.4 602.36-7.6 602.36 0 592.16 0 592.16-34.3 602.36-34.3 602.36-20.75 612.16-34.3 623.76-34.3ZM645.06-26.05Q647.11-26.05 648.83-25.05 650.56-24.05 651.56-22.33 652.56-20.6 652.56-18.55L652.56-18.55 652.56 0 642.66 0 642.66-16Q642.66-17.25 641.88-18.13 641.11-19 640.01-19L640.01-19Q638.91-19 638.13-18.13 637.36-17.25 637.36-16L637.36-16 637.36 0 627.46 0 627.46-25.55 634.91-25.55 635.91-21.85Q638.66-26.05 643.66-26.05L643.66-26.05 645.06-26.05ZM672.46-26.05Q676.21-26.05 679.23-24.43 682.26-22.8 683.98-19.9 685.71-17 685.71-13.3L685.71-13.3 685.71-12.25Q685.71-8.5 683.98-5.6 682.26-2.7 679.23-1.1 676.21 0.5 672.46 0.5L672.46 0.5 670.86 0.5Q667.11 0.5 664.08-1.13 661.06-2.75 659.33-5.65 657.61-8.55 657.61-12.25L657.61-12.25 657.61-13.3Q657.61-17 659.33-19.9 661.06-22.8 664.08-24.43 667.11-26.05 670.86-26.05L670.86-26.05 672.46-26.05ZM671.66-20Q670.21-20 669.21-18.98 668.21-17.95 668.21-16.5L668.21-16.5 668.21-9.05Q668.21-7.6 669.21-6.58 670.21-5.55 671.66-5.55L671.66-5.55Q673.11-5.55 674.11-6.58 675.11-7.6 675.11-9.05L675.11-9.05 675.11-16.5Q675.11-17.95 674.11-18.98 673.11-20 671.66-20L671.66-20ZM721.4-25.55L731-25.55 723.7 0 712.5 0 710.05-10.65 709.65-10.65 707.25 0 695.85 0 688.6-25.55 698.9-25.55 701.75-12.65 702.1-12.65 705.15-25.55 715.15-25.55 718.15-12.65 718.55-12.65 721.4-25.55ZM746-34.3L746-8.4 758.45-8.4 759.45 0 735.4 0 735.4-34.3 746-34.3ZM777.3-26.05Q781.05-26.05 784.07-24.43 787.1-22.8 788.82-19.9 790.55-17 790.55-13.3L790.55-13.3 790.55-12.25Q790.55-8.5 788.82-5.6 787.1-2.7 784.07-1.1 781.05 0.5 777.3 0.5L777.3 0.5 775.7 0.5Q771.95 0.5 768.92-1.13 765.9-2.75 764.17-5.65 762.45-8.55 762.45-12.25L762.45-12.25 762.45-13.3Q762.45-17 764.17-19.9 765.9-22.8 768.92-24.43 771.95-26.05 775.7-26.05L775.7-26.05 777.3-26.05ZM776.5-20Q775.05-20 774.05-18.98 773.05-17.95 773.05-16.5L773.05-16.5 773.05-9.05Q773.05-7.6 774.05-6.58 775.05-5.55 776.5-5.55L776.5-5.55Q777.95-5.55 778.95-6.58 779.95-7.6 779.95-9.05L779.95-9.05 779.95-16.5Q779.95-17.95 778.95-18.98 777.95-20 776.5-20L776.5-20ZM820.65-25.55L820.65-7.4Q820.65-6.45 821.1-6 821.55-5.55 822.2-5.55L822.2-5.55Q823.15-5.55 823.95-6L823.95-6 823.95-0.65Q822.35 0.5 818.9 0.5L818.9 0.5Q815.7 0.5 814-0.53 812.3-1.55 811.55-3.55L811.55-3.55Q810.7-2.25 808.75-0.88 806.8 0.5 804.45 0.5L804.45 0.5 803.05 0.5Q801 0.5 799.27-0.5 797.55-1.5 796.55-3.23 795.55-4.95 795.55-7L795.55-7 795.55-25.55 805.45-25.55 805.45-9.55Q805.45-8.3 806.22-7.43 807-6.55 808.1-6.55L808.1-6.55Q809.2-6.55 809.97-7.43 810.75-8.3 810.75-9.55L810.75-9.55 810.75-25.55 820.65-25.55ZM846.15-26.05Q848.2-26.05 849.92-25.05 851.65-24.05 852.65-22.33 853.65-20.6 853.65-18.55L853.65-18.55 853.65 0 843.75 0 843.75-16Q843.75-17.25 842.97-18.13 842.2-19 841.1-19L841.1-19Q840-19 839.22-18.13 838.45-17.25 838.45-16L838.45-16 838.45 0 828.55 0 828.55-25.55 836-25.55 837-21.85Q839.75-26.05 844.75-26.05L844.75-26.05 846.15-26.05ZM886.84-30.15Q886.84-27.25 885.47-25.7 884.09-24.15 881.34-23.4L881.34-23.4Q882.69-22.35 883.42-20.95 884.14-19.55 884.14-18.05L884.14-18.05Q884.14-15.85 882.79-14 881.44-12.15 879.14-11.08 876.84-10 874.14-10L874.14-10 870.69-10Q869.24-10 868.54-9.58 867.84-9.15 867.84-8.5L867.84-8.5Q867.84-7.75 868.44-7.35 869.04-6.95 870.69-6.95L870.69-6.95 878.84-6.95Q882.84-6.95 884.84-4.83 886.84-2.7 886.84 0.85L886.84 0.85Q886.84 3.1 885.47 5.08 884.09 7.05 881.79 8.22 879.49 9.4 876.84 9.4L876.84 9.4 863.59 9.4Q861.14 9.4 859.37 7.65 857.59 5.9 857.59 3.4L857.59 3.4 857.59 3.15Q857.59 1.4 858.69-0.08 859.79-1.55 861.39-2.3L861.39-2.3Q860.29-3.05 859.64-4.2 858.99-5.35 858.99-6.65L858.99-6.65Q858.99-8.5 860.32-10 861.64-11.5 863.59-12L863.59-12Q861.84-13.15 860.79-14.7 859.74-16.25 859.74-18L859.74-18Q859.74-21.55 862.69-23.8 865.64-26.05 871.24-26.05L871.24-26.05 872.64-26.05Q874.44-26.05 875.94-25.75L875.94-25.75Q877.84-27 878.64-28.18 879.44-29.35 879.44-30.15L879.44-30.15 886.84-30.15ZM872.14-21.15Q870.84-21.15 869.97-20.23 869.09-19.3 869.09-18L869.09-18Q869.09-16.7 869.97-15.78 870.84-14.85 872.14-14.85L872.14-14.85Q873.44-14.85 874.32-15.78 875.19-16.7 875.19-18L875.19-18Q875.19-19.3 874.32-20.23 873.44-21.15 872.14-21.15L872.14-21.15ZM868.29 0Q867.24 0 866.52 0.6 865.79 1.2 865.79 2.05L865.79 2.05Q865.79 2.9 866.52 3.53 867.24 4.15 868.29 4.15L868.29 4.15 875.44 4.15Q876.49 4.15 877.22 3.55 877.94 2.95 877.94 2.1L877.94 2.1Q877.94 1.25 877.22 0.63 876.49 0 875.44 0L875.44 0 868.29 0ZM904.54-26.05Q908.39-26.05 911.17-24.58 913.94-23.1 915.42-20.5 916.89-17.9 916.89-14.55L916.89-14.55 916.89-11.45 900.24-11.45 900.24-9.05Q900.24-7.35 901.32-6.45 902.39-5.55 904.09-5.55L904.09-5.55Q905.84-5.55 906.77-6.63 907.69-7.7 907.69-9.6L907.69-9.6 916.84-9.6Q916.84-6.75 915.37-4.45 913.89-2.15 911.07-0.83 908.24 0.5 904.39 0.5L904.39 0.5 903.64 0.5Q899.64 0.5 896.47-0.98 893.29-2.45 891.47-5.28 889.64-8.1 889.64-12L889.64-12 889.64-13.55Q889.64-17.45 891.37-20.28 893.09-23.1 896.19-24.58 899.29-26.05 903.29-26.05L903.29-26.05 904.54-26.05ZM903.69-20Q902.24-20 901.24-18.98 900.24-17.95 900.24-16.5L900.24-16.5 900.24-15.8 907.14-15.8 907.14-16.5Q907.14-17.95 906.14-18.98 905.14-20 903.69-20L903.69-20Z" opacity="1" transform="matrix(1,0,0,1,0,0)" fill="#ffdc00" class="undefined-text-1" data-fill-palette-color="secondary" id="SvgjsPath2429" stroke-width="7" stroke="black" stroke-linejoin="round"></path></svg></g></svg></g></svg></g></svg></g></svg></g></svg></g></svg></g></mask></svg></g><defs></defs></svg><rect width="395.52" height="247.2" fill="none" stroke="none" visibility="hidden"></rect></g></svg></g></svg>